<?xml version="1.0" encoding="UTF-8"?>
<svg version="1.1" xmlns="http://www.w3.org/2000/svg" width="180" height="180">
<path d="M0 0 C1.175625 0.391875 2.35125 0.78375 3.5625 1.1875 C4.820625 1.538125 6.07875 1.88875 7.375 2.25 C16.68544331 5.97417732 24.54303121 13.7602063 28.77734375 22.7734375 C33.45113224 34.11693838 34.05811101 44.58771357 29.5625 56.1875 C28.58107921 58.52942851 27.57512623 60.85874331 26.5625 63.1875 C27.47773437 62.32125 28.39296875 61.455 29.3359375 60.5625 C30.53621473 59.4372401 31.73674888 58.31225421 32.9375 57.1875 C33.54078125 56.61515625 34.1440625 56.0428125 34.765625 55.453125 C35.34570312 54.91171875 35.92578125 54.3703125 36.5234375 53.8125 C37.05759277 53.30976562 37.59174805 52.80703125 38.14208984 52.2890625 C39.5625 51.1875 39.5625 51.1875 41.5625 51.1875 C41.5625 50.5275 41.5625 49.8675 41.5625 49.1875 C43.2125 48.5275 44.8625 47.8675 46.5625 47.1875 C46.5625 46.5275 46.5625 45.8675 46.5625 45.1875 C50.02403846 42.1875 50.02403846 42.1875 52.5625 42.1875 C52.5625 41.5275 52.5625 40.8675 52.5625 40.1875 C53.305 39.506875 54.0475 38.82625 54.8125 38.125 C57.74211185 35.32668728 58.9339256 32.30896481 60.4609375 28.609375 C62.32034338 24.52131952 64.67704583 20.63465591 67.5625 17.1875 C68.5525 16.8575 69.5425 16.5275 70.5625 16.1875 C70.5625 15.5275 70.5625 14.8675 70.5625 14.1875 C82.35989678 7.73464414 92.66099481 5.32343006 105.796875 9.12109375 C110.18041686 10.81135777 113.84392308 13.35036354 117.5625 16.1875 C117.29126813 24.32445602 114.47333499 30.11929365 110.5625 37.1875 C109.9025 37.1875 109.2425 37.1875 108.5625 37.1875 C108.15837891 38.0846875 108.15837891 38.0846875 107.74609375 39 C104.34381802 45.28803435 98.07821613 48.36499261 91.5 50.4921875 C82.58805642 52.60166351 74.61355121 51.08924031 66.08129883 48.25976562 C63.89126156 47.5446552 63.89126156 47.5446552 60.5625 47.1875 C57.70326879 48.95719254 57.70326879 48.95719254 55.5625 51.1875 C54.9025 51.1875 54.2425 51.1875 53.5625 51.1875 C53.2325 52.1775 52.9025 53.1675 52.5625 54.1875 C51.1015625 55.625 51.1015625 55.625 49.1875 57.1875 C43.65592288 61.86419702 38.6378467 67.02818616 33.5625 72.1875 C35.0165625 71.1975 35.0165625 71.1975 36.5 70.1875 C44.10049025 66.42100483 54.04544597 66.96559181 62.0859375 69.140625 C67.77997435 71.40676561 72.87104011 74.24240872 77.5625 78.1875 C77.5625 78.8475 77.5625 79.5075 77.5625 80.1875 C78.2225 80.1875 78.8825 80.1875 79.5625 80.1875 C83.09166234 84.51072387 86.16187178 88.4785478 86.5625 94.1875 C82.2694102 101.82296075 73.92317915 107.23625038 65.8125 110.0625 C54.87187178 112.86952362 44.4187141 111.81075565 34.5625 106.1875 C30.85671108 103.15332578 27.52082263 99.96052999 24.5625 96.1875 C24.5625 95.5275 24.5625 94.8675 24.5625 94.1875 C23.9025 94.1875 23.2425 94.1875 22.5625 94.1875 C21.18017557 92.56123596 19.84312485 90.8949998 18.5625 89.1875 C18.22476563 89.6928125 17.88703125 90.198125 17.5390625 90.71875 C16.87003906 91.69328125 16.87003906 91.69328125 16.1875 92.6875 C15.74664062 93.3371875 15.30578125 93.986875 14.8515625 94.65625 C14.42617187 95.1615625 14.00078125 95.666875 13.5625 96.1875 C12.9025 96.1875 12.2425 96.1875 11.5625 96.1875 C11.35625 96.8475 11.15 97.5075 10.9375 98.1875 C9.75376335 100.77019814 8.65762041 102.4812586 6.9375 104.6875 C2.22821407 110.76887418 -2.99499675 117.85999026 -5.4375 125.1875 C-2.9625 124.1975 -2.9625 124.1975 -0.4375 123.1875 C-0.4375 122.5275 -0.4375 121.8675 -0.4375 121.1875 C1.45442475 120.20080241 3.35121978 119.2234398 5.25 118.25 C6.83361328 117.43208984 6.83361328 117.43208984 8.44921875 116.59765625 C16.21665836 113.07940569 24.87523441 113.47387602 32.83203125 116.3828125 C41.42398595 120.51127375 49.95097396 125.89534445 53.5625 135.1875 C53.06835343 140.3508274 49.1428557 143.7713808 45.5625 147.1875 C37.38610607 153.92969825 27.87190934 155.56210723 17.4375 155.02734375 C11.47794426 154.17479619 6.11276619 152.25535975 1.5625 148.1875 C1.5625 147.5275 1.5625 146.8675 1.5625 146.1875 C0.923125 145.919375 0.28375 145.65125 -0.375 145.375 C-2.4375 144.1875 -2.4375 144.1875 -3.4375 141.1875 C-4.0975 141.1875 -4.7575 141.1875 -5.4375 141.1875 C-5.4375 140.5275 -5.4375 139.8675 -5.4375 139.1875 C-6.0975 139.1875 -6.7575 139.1875 -7.4375 139.1875 C-9.0625 137.1875 -9.0625 137.1875 -10.4375 135.1875 C-15.01017825 143.46283365 -17.14556631 152.15204399 -19.29345703 161.30102539 C-19.52919434 162.27418701 -19.76493164 163.24734863 -20.0078125 164.25 C-20.21164551 165.12785156 -20.41547852 166.00570312 -20.62548828 166.91015625 C-21.51366025 169.40109676 -22.37923437 170.55519456 -24.4375 172.1875 C-26.59375 172.734375 -26.59375 172.734375 -28.9375 172.9375 C-29.7109375 173.01484375 -30.484375 173.0921875 -31.28125 173.171875 C-33.4375 173.1875 -33.4375 173.1875 -36.4375 172.1875 C-39.36094849 167.80232726 -39.06599446 164.34371985 -38.4375 159.1875 C-33.6815394 139.92782483 -24.18066169 122.10033505 -12.4375 106.1875 C-13.365625 106.10375122 -13.365625 106.10375122 -14.3125 106.01831055 C-23.95407892 105.11118432 -31.44988272 102.90562689 -37.984375 95.4140625 C-42.65135083 89.12737154 -43.78118207 83.85191798 -43.75 76.125 C-43.76611328 75.32255859 -43.78222656 74.52011719 -43.79882812 73.69335938 C-43.80166623 70.27343702 -43.71633956 67.79087523 -42.26953125 64.66015625 C-38.99415592 62.02728525 -35.60919401 62.66055866 -31.578125 62.796875 C-26.98060127 63.36870631 -23.42472343 64.89544342 -19.4375 67.1875 C-18.385625 67.765 -17.33375 68.3425 -16.25 68.9375 C-10.34862902 73.65859678 -6.03314242 79.70894328 -5.0234375 87.30078125 C-4.91902344 88.88439453 -4.91902344 88.88439453 -4.8125 90.5 C-4.73773438 91.56863281 -4.66296875 92.63726562 -4.5859375 93.73828125 C-4.53695312 94.54652344 -4.48796875 95.35476562 -4.4375 96.1875 C-4.1075 95.5275 -3.7775 94.8675 -3.4375 94.1875 C-2.7775 94.1875 -2.1175 94.1875 -1.4375 94.1875 C-1.1792041 93.60629395 -0.9209082 93.02508789 -0.65478516 92.42626953 C0.66104991 90.00625196 2.12309833 88.34110522 4.0390625 86.3671875 C4.709375 85.66722656 5.3796875 84.96726562 6.0703125 84.24609375 C7.48946088 82.78243334 8.90873304 81.31889294 10.328125 79.85546875 C10.99585938 79.15808594 11.66359375 78.46070312 12.3515625 77.7421875 C12.96725098 77.10780762 13.58293945 76.47342773 14.21728516 75.81982422 C15.77449141 74.28279713 15.77449141 74.28279713 15.5625 72.1875 C10.2825 69.2175 5.0025 66.2475 -0.4375 63.1875 C-0.4375 62.5275 -0.4375 61.8675 -0.4375 61.1875 C-1.035625 60.92195313 -1.63375 60.65640625 -2.25 60.3828125 C-9.22587206 56.5709967 -13.01945901 48.44162297 -15.4375 41.1875 C-16.75101343 27.03647112 -15.87187503 14.98826189 -7.0625 3.375 C-4.43224482 0.63680778 -3.93818187 0.21480992 0 0 Z M-6.4375 125.1875 C-6.7675 125.8475 -7.0975 126.5075 -7.4375 127.1875 C-6.7775 127.1875 -6.1175 127.1875 -5.4375 127.1875 C-5.7675 126.5275 -6.0975 125.8675 -6.4375 125.1875 Z " fill="#9F6252" transform="translate(55.4375,2.8125)"/>
<path d="M0 0 C0.74556152 0.00427002 1.49112305 0.00854004 2.25927734 0.01293945 C12.05690619 0.31089013 20.42235222 4.23300073 27.875 10.5 C27.875 11.16 27.875 11.82 27.875 12.5 C28.535 12.5 29.195 12.5 29.875 12.5 C33.40416234 16.82322387 36.47437178 20.7910478 36.875 26.5 C32.5819102 34.13546075 24.23567915 39.54875038 16.125 42.375 C5.18437178 45.18202362 -5.2687859 44.12325565 -15.125 38.5 C-18.83078892 35.46582578 -22.16667737 32.27302999 -25.125 28.5 C-25.125 27.84 -25.125 27.18 -25.125 26.5 C-25.785 26.5 -26.445 26.5 -27.125 26.5 C-28.51438077 24.53852126 -29.8510411 22.53833424 -31.125 20.5 C-26.14168596 8.72125772 -12.55948255 -0.10922523 0 0 Z " fill="#76B154" transform="translate(105.125,70.5)"/>
<path d="M0 0 C4.19439978 3.30660026 7.91770487 7.52487445 9.87109375 12.55078125 C9.37694718 17.71410865 5.45144945 21.13466205 1.87109375 24.55078125 C-6.30530018 31.2929795 -15.81949691 32.92538848 -26.25390625 32.390625 C-32.21346199 31.53807744 -37.57864006 29.618641 -42.12890625 25.55078125 C-42.12890625 24.89078125 -42.12890625 24.23078125 -42.12890625 23.55078125 C-42.76828125 23.28265625 -43.40765625 23.01453125 -44.06640625 22.73828125 C-46.12890625 21.55078125 -46.12890625 21.55078125 -47.12890625 18.55078125 C-47.78890625 18.55078125 -48.44890625 18.55078125 -49.12890625 18.55078125 C-49.12890625 17.89078125 -49.12890625 17.23078125 -49.12890625 16.55078125 C-49.78890625 16.55078125 -50.44890625 16.55078125 -51.12890625 16.55078125 C-52.81640625 14.92578125 -52.81640625 14.92578125 -54.12890625 12.55078125 C-54.06640625 9.42578125 -54.06640625 9.42578125 -53.12890625 6.55078125 C-51.06640625 5.17578125 -51.06640625 5.17578125 -49.12890625 4.55078125 C-49.12890625 3.89078125 -49.12890625 3.23078125 -49.12890625 2.55078125 C-47.47890625 1.89078125 -45.82890625 1.23078125 -44.12890625 0.55078125 C-44.12890625 -0.10921875 -44.12890625 -0.76921875 -44.12890625 -1.44921875 C-42.2369815 -2.43591634 -40.34018647 -3.41327895 -38.44140625 -4.38671875 C-37.38566406 -4.93199219 -36.32992187 -5.47726563 -35.2421875 -6.0390625 C-22.95830301 -11.60303026 -10.55154919 -7.18279771 0 0 Z " fill="#76B154" transform="translate(99.12890625,125.44921875)"/>
<path d="M0 0 C3 1 3 1 4.359375 3.640625 C10.11391633 18.57656935 15.24470715 33.65407423 19.375 49.125 C19.62572266 50.04796875 19.87644531 50.9709375 20.13476562 51.921875 C21.77491776 58.26318742 22.5917189 64.46592606 23 71 C19.44352761 70.19278682 16.68904334 68.8541466 13.5 67.0625 C10.36122225 65.30771629 7.2318659 63.57782132 4 62 C4 61.34 4 60.68 4 60 C3.401875 59.73445313 2.80375 59.46890625 2.1875 59.1953125 C-4.78837206 55.3834967 -8.58195901 47.25412297 -11 40 C-12.17170639 27.37671759 -12.08116671 15.28861599 -4.33203125 4.7265625 C-2.96513572 3.08369044 -1.49372812 1.52846599 0 0 Z " fill="#A5D287" transform="translate(51,4)"/>
<path d="M0 0 C11.24738459 1.17160256 19.08864657 5.69708256 26.828125 13.94921875 C34.40761187 23.3852971 36.80706735 34.14344688 36 46 C34.20191813 55.627525 29.73470241 64.89114745 23 72 C22.67 72 22.34 72 22 72 C21.79246094 70.906875 21.58492187 69.81375 21.37109375 68.6875 C16.74748785 45.15313909 9.65877037 21.9707215 0 0 Z " fill="#76B254" transform="translate(52,3)"/>
<path d="M0 0 C-0.29455112 7.65832917 -3.37172342 13.34261178 -7 20 C-7.66 20 -8.32 20 -9 20 C-9.26941406 20.598125 -9.53882813 21.19625 -9.81640625 21.8125 C-13.21780696 28.09891715 -19.48009373 31.17287099 -26.0546875 33.3046875 C-36.06670479 35.66826718 -45.50206683 33.58461941 -55 30 C-57 28 -57 28 -57.125 25.375 C-57.08375 24.59125 -57.0425 23.8075 -57 23 C-13.55773809 -0.58312852 -13.55773809 -0.58312852 0 0 Z " fill="#A4D186" transform="translate(173,20)"/>
<path d="M0 0 C3.44032958 1.94775583 6.5079886 3.8886424 9.5390625 6.4375 C9.5390625 7.0975 9.5390625 7.7575 9.5390625 8.4375 C10.1990625 8.4375 10.8590625 8.4375 11.5390625 8.4375 C15.05536247 12.24682497 17.19752312 16.43721686 18.5390625 21.4375 C13.58063174 21.02429744 9.00763175 20.35413422 4.2109375 19.02734375 C-2.59097027 17.29245053 -9.42278084 16.37424439 -16.37890625 15.55712891 C-18.45933823 15.31268791 -20.53826432 15.05771032 -22.6171875 14.80078125 C-30.55219238 13.83218579 -38.4886445 13.02824993 -46.4609375 12.4375 C-44.01205607 7.20244985 -40.10392374 4.73394665 -35.4609375 1.4375 C-34.47287109 0.6640625 -34.47287109 0.6640625 -33.46484375 -0.125 C-23.78286319 -6.76838627 -10.02996408 -4.86301289 0 0 Z " fill="#5C913B" transform="translate(123.4609375,74.5625)"/>
<path d="M0 0 C0.52207031 0.43054687 1.04414063 0.86109375 1.58203125 1.3046875 C1.58203125 1.6346875 1.58203125 1.9646875 1.58203125 2.3046875 C0.59847656 2.56121094 -0.38507813 2.81773438 -1.3984375 3.08203125 C-17.69814933 7.50783363 -33.32542474 13.95035874 -47.82617188 22.64941406 C-52.43017049 25.2779381 -55.28739092 25.56413167 -60.41796875 24.3046875 C-53.26939956 7.90353762 -53.26939956 7.90353762 -48.41796875 2.3046875 C-47.42796875 1.9746875 -46.43796875 1.6446875 -45.41796875 1.3046875 C-45.41796875 0.6446875 -45.41796875 -0.0153125 -45.41796875 -0.6953125 C-29.88224234 -9.19293321 -15.02617772 -10.57885016 0 0 Z " fill="#77B255" transform="translate(171.41796875,17.6953125)"/>
<path d="M0 0 C3.76343962 3.03477365 6.48871524 6.25546867 8.8359375 10.48046875 C8.8359375 11.47046875 8.8359375 12.46046875 8.8359375 13.48046875 C5.40754793 13.069062 2.22966137 12.61269815 -1.05004883 11.51123047 C-12.34436974 7.77272612 -24.23673195 8.23150999 -35.9765625 8.35546875 C-37.6516873 8.36552761 -39.32681802 8.37464828 -41.00195312 8.3828125 C-45.05613879 8.4045752 -49.1100331 8.43894138 -53.1640625 8.48046875 C-52.5040625 7.16046875 -51.8440625 5.84046875 -51.1640625 4.48046875 C-50.5040625 4.48046875 -49.8440625 4.48046875 -49.1640625 4.48046875 C-49.1640625 3.82046875 -49.1640625 3.16046875 -49.1640625 2.48046875 C-47.5140625 1.82046875 -45.8640625 1.16046875 -44.1640625 0.48046875 C-44.1640625 -0.17953125 -44.1640625 -0.83953125 -44.1640625 -1.51953125 C-42.27213775 -2.50622884 -40.37534272 -3.48359145 -38.4765625 -4.45703125 C-36.89294922 -5.27494141 -36.89294922 -5.27494141 -35.27734375 -6.109375 C-23.04251303 -11.65112392 -10.4431806 -7.33284703 0 0 Z " fill="#5B903A" transform="translate(99.1640625,125.51953125)"/>
<path d="M0 0 C9.31524068 4.04009315 15.84674267 14.29523524 22 22 C23.64394715 24.00155068 25.28973527 26.00159094 26.9375 28 C29.09931602 30.62315594 31.11339797 33.17009695 33 36 C32.625 38.6875 32.625 38.6875 32 41 C23.05733296 41.5961778 14.68520984 39.42882083 7.71875 33.67578125 C2.52018735 28.60718267 -1.04535598 23.03727655 -1.23046875 15.64453125 C-1.22651117 14.03379535 -1.21192183 12.42305561 -1.1875 10.8125 C-1.18685547 9.99330078 -1.18621094 9.17410156 -1.18554688 8.33007812 C-1.14074248 2.28148496 -1.14074248 2.28148496 0 0 Z " fill="#A4D287" transform="translate(13,68)"/>
<path d="M0 0 C6.06147349 0.0503923 10.28713263 1.31588163 15.5 4.3125 C16.551875 4.89 17.60375 5.4675 18.6875 6.0625 C23.70515554 10.07662443 27.57246243 15.13905018 29.5 21.3125 C29.80078125 24.90625 29.80078125 24.90625 29.8125 28.8125 C29.82925781 30.1015625 29.84601562 31.390625 29.86328125 32.71875 C29.48695084 36.44158842 28.67874312 38.32319546 26.5 41.3125 C24.83485529 39.10277966 23.1864051 36.88303871 21.5546875 34.6484375 C16.54509086 27.8432865 11.23410444 21.52969749 5.5 15.3125 C1.41306962 10.71675499 -2.58626805 6.05641752 -6.5 1.3125 C-4.74521418 -0.44228582 -2.38495037 0.05721472 0 0 Z " fill="#77B255" transform="translate(20.5,65.6875)"/>
</svg>
